<?xml version="1.0" encoding="UTF-8" standalone="no"?>
<svg width="24px" height="24px" viewBox="0 0 24 24" version="1.1" xmlns="http://www.w3.org/2000/svg" xmlns:xlink="http://www.w3.org/1999/xlink">
    <!-- Generator: sketchtool 45.2 (43514) - http://www.bohemiancoding.com/sketch -->
    <title>79CEDEEC-E669-4DDA-A728-7F51F17F82FE</title>
    <desc>Created with sketchtool.</desc>
    <defs></defs>
    <g id="Page-1" stroke="none" stroke-width="1" fill="none" fill-rule="evenodd">
        <g id="Desktop_Landing-Page" transform="translate(-1219.000000, -732.000000)" fill="#FFFFFF">
            <g id="Ho-tro-truc-tuyen" transform="translate(1195.000000, 713.000000)">
                <g id="Landing/Glyphs/Message" transform="translate(24.000000, 19.000000)">
                    <g id="logo-messenger">
                        <path d="M12,0 C5.37216937,0 -9.41885459e-14,4.973 -9.41885459e-14,11.108 C-9.41885459e-14,14.598 1.73853018,17.712 4.45795101,19.748 L4.45795101,24 L8.55324522,21.751 C9.64525633,22.054 10.8019194,22.216 12,22.216 C18.6278306,22.216 24,17.243 24,11.108 C24,4.973 18.6278306,0 12,0 Z M13.2933575,14.9195864 L10.117343,11.7110856 L4,15 L10.7066425,8.08041356 L13.882657,11.2889144 L20,8 L13.2933575,14.9195864 Z" id="Shape" fill-rule="nonzero"></path>
                    </g>
                </g>
            </g>
        </g>
    </g>
</svg>